<svg width="33" height="32" viewBox="0 0 33 32" fill="none" xmlns="http://www.w3.org/2000/svg">
<rect x="0.624023" width="32" height="32" rx="16" fill="#D1FADF"/>
<path d="M23.2904 15.3867V16C23.2895 17.4376 22.824 18.8365 21.9633 19.9879C21.1025 21.1393 19.8926 21.9817 18.5139 22.3893C17.1353 22.7969 15.6619 22.7479 14.3133 22.2497C12.9648 21.7515 11.8135 20.8307 11.031 19.6247C10.2485 18.4187 9.87689 16.9921 9.97148 15.5576C10.0661 14.1231 10.6218 12.7576 11.5559 11.6647C12.4899 10.5719 13.7522 9.81027 15.1545 9.49344C16.5568 9.17662 18.0239 9.32157 19.337 9.90668M23.2904 10.6667L16.6237 17.34L14.6237 15.34" stroke="#039855" stroke-width="1.33333" stroke-linecap="round" stroke-linejoin="round"/>
</svg>
