<svg width="33" height="32" viewBox="0 0 33 32" fill="none" xmlns="http://www.w3.org/2000/svg">
<rect x="0.624023" width="32" height="32" rx="16" fill="#FEF0C7"/>
<g clip-path="url(#clip0_8142_718)">
<path d="M16.6235 13.3334V16.0001M16.6235 18.6667H16.6302M15.4835 9.90672L9.83688 19.3334C9.72046 19.535 9.65886 19.7636 9.65821 19.9964C9.65756 20.2292 9.71788 20.4581 9.83317 20.6604C9.94846 20.8627 10.1147 21.0312 10.3154 21.1493C10.516 21.2674 10.7441 21.3308 10.9769 21.3334H22.2702C22.503 21.3308 22.7311 21.2674 22.9317 21.1493C23.1324 21.0312 23.2986 20.8627 23.4139 20.6604C23.5292 20.4581 23.5895 20.2292 23.5889 19.9964C23.5882 19.7636 23.5266 19.535 23.4102 19.3334L17.7635 9.90672C17.6447 9.71079 17.4774 9.5488 17.2777 9.43638C17.078 9.32395 16.8527 9.26489 16.6235 9.26489C16.3944 9.26489 16.1691 9.32395 15.9694 9.43638C15.7697 9.5488 15.6024 9.71079 15.4835 9.90672Z" stroke="#DC6803" stroke-width="1.33333" stroke-linecap="round" stroke-linejoin="round"/>
</g>
<defs>
<clipPath id="clip0_8142_718">
<rect width="16" height="16" fill="white" transform="translate(8.62402 8)"/>
</clipPath>
</defs>
</svg>
