<svg width="21" height="20" viewBox="0 0 21 20" fill="none" xmlns="http://www.w3.org/2000/svg">
<path d="M6.14193 9.16663V5.83329C6.14193 4.72822 6.58091 3.66842 7.36232 2.88701C8.14372 2.10561 9.20352 1.66663 10.3086 1.66663C11.4137 1.66663 12.4735 2.10561 13.2549 2.88701C14.0363 3.66842 14.4753 4.72822 14.4753 5.83329V9.16663M4.47526 9.16663H16.1419C17.0624 9.16663 17.8086 9.91282 17.8086 10.8333V16.6666C17.8086 17.5871 17.0624 18.3333 16.1419 18.3333H4.47526C3.55479 18.3333 2.80859 17.5871 2.80859 16.6666V10.8333C2.80859 9.91282 3.55479 9.16663 4.47526 9.16663Z" stroke="#667085" stroke-width="1.66667" stroke-linecap="round" stroke-linejoin="round"/>
</svg>
