<svg width="25" height="24" viewBox="0 0 25 24" fill="none" xmlns="http://www.w3.org/2000/svg">
<path d="M16.9148 21V5C16.9148 4.46957 16.7041 3.96086 16.329 3.58579C15.9539 3.21071 15.4452 3 14.9148 3H10.9148C10.3844 3 9.87565 3.21071 9.50058 3.58579C9.12551 3.96086 8.91479 4.46957 8.91479 5V21M4.91479 7H20.9148C22.0194 7 22.9148 7.89543 22.9148 9V19C22.9148 20.1046 22.0194 21 20.9148 21H4.91479C3.81023 21 2.91479 20.1046 2.91479 19V9C2.91479 7.89543 3.81023 7 4.91479 7Z" stroke="#6941C6" stroke-width="2" stroke-linecap="round" stroke-linejoin="round"/>
</svg>
