<svg width="25" height="24" viewBox="0 0 25 24" fill="none" xmlns="http://www.w3.org/2000/svg">
<path d="M16.666 21V5C16.666 4.46957 16.4553 3.96086 16.0802 3.58579C15.7052 3.21071 15.1964 3 14.666 3H10.666C10.1356 3 9.62688 3.21071 9.2518 3.58579C8.87673 3.96086 8.66602 4.46957 8.66602 5V21M4.66602 7H20.666C21.7706 7 22.666 7.89543 22.666 9V19C22.666 20.1046 21.7706 21 20.666 21H4.66602C3.56145 21 2.66602 20.1046 2.66602 19V9C2.66602 7.89543 3.56145 7 4.66602 7Z" stroke="#475467" stroke-width="2" stroke-linecap="round" stroke-linejoin="round"/>
</svg>
