<svg width="21" height="21" viewBox="0 0 21 21" fill="none" xmlns="http://www.w3.org/2000/svg">
<g clip-path="url(#clip0_8198_3675)">
<path d="M17.876 8.83337C17.876 14.6667 10.376 19.6667 10.376 19.6667C10.376 19.6667 2.87598 14.6667 2.87598 8.83337C2.87598 6.84425 3.66615 4.9366 5.07268 3.53007C6.4792 2.12355 8.38685 1.33337 10.376 1.33337C12.3651 1.33337 14.2728 2.12355 15.6793 3.53007C17.0858 4.9366 17.876 6.84425 17.876 8.83337Z" stroke="#667085" stroke-width="1.66667" stroke-linecap="round" stroke-linejoin="round"/>
<path d="M10.376 11.3334C11.7567 11.3334 12.876 10.2141 12.876 8.83337C12.876 7.45266 11.7567 6.33337 10.376 6.33337C8.99526 6.33337 7.87598 7.45266 7.87598 8.83337C7.87598 10.2141 8.99526 11.3334 10.376 11.3334Z" stroke="#667085" stroke-width="1.66667" stroke-linecap="round" stroke-linejoin="round"/>
</g>
<defs>
<clipPath id="clip0_8198_3675">
<rect width="20" height="20" fill="white" transform="translate(0.375977 0.5)"/>
</clipPath>
</defs>
</svg>
