<svg width="16" height="16" viewBox="0 0 16 16" fill="none" xmlns="http://www.w3.org/2000/svg">
<g clip-path="url(#clip0_8176_5266)">
<path d="M10.0331 3.33329C10.6843 3.46034 11.2827 3.7788 11.7518 4.24792C12.221 4.71703 12.5394 5.31547 12.6665 5.96663M10.0331 0.666626C11.386 0.816917 12.6475 1.42274 13.6106 2.38463C14.5737 3.34652 15.1811 4.6073 15.3331 5.95996M14.6665 11.28V13.28C14.6672 13.4656 14.6292 13.6494 14.5548 13.8195C14.4804 13.9896 14.3713 14.1424 14.2345 14.2679C14.0977 14.3934 13.9362 14.4889 13.7603 14.5484C13.5844 14.6079 13.398 14.63 13.2131 14.6133C11.1617 14.3904 9.19113 13.6894 7.45979 12.5666C5.84901 11.5431 4.48335 10.1774 3.45979 8.56663C2.33311 6.82743 1.63195 4.84729 1.41313 2.78663C1.39647 2.60227 1.41838 2.41647 1.47746 2.24104C1.53654 2.06562 1.63151 1.90442 1.7563 1.76771C1.8811 1.63099 2.033 1.52177 2.20232 1.44697C2.37164 1.37218 2.55469 1.33347 2.73979 1.33329H4.73979C5.06333 1.33011 5.37699 1.44468 5.6223 1.65565C5.86761 1.86662 6.02784 2.15959 6.07313 2.47996C6.15754 3.12 6.31409 3.74844 6.53979 4.35329C6.62949 4.59191 6.6489 4.85124 6.59573 5.10055C6.54256 5.34986 6.41903 5.5787 6.23979 5.75996L5.39313 6.60663C6.34216 8.27566 7.7241 9.65759 9.39313 10.6066L10.2398 9.75996C10.4211 9.58072 10.6499 9.45719 10.8992 9.40402C11.1485 9.35085 11.4078 9.37026 11.6465 9.45996C12.2513 9.68566 12.8797 9.84221 13.5198 9.92663C13.8436 9.97231 14.1394 10.1354 14.3508 10.385C14.5622 10.6345 14.6746 10.953 14.6665 11.28Z" stroke="#98A2B3" stroke-width="1.33333" stroke-linecap="round" stroke-linejoin="round"/>
</g>
<defs>
<clipPath id="clip0_8176_5266">
<rect width="16" height="16" fill="white"/>
</clipPath>
</defs>
</svg>
