<svg width="21" height="21" viewBox="0 0 21 21" fill="none" xmlns="http://www.w3.org/2000/svg">
<path d="M4.07111 2.5531C3.68933 2.65637 3.41081 2.8191 3.11665 3.11639C2.90073 3.32918 2.82249 3.43558 2.71609 3.64838C2.48765 4.11466 2.48765 4.1084 2.49704 6.11745L2.50643 7.89806L2.60031 8.03263C2.738 8.22978 2.94454 8.32679 3.22305 8.32366C3.47027 8.32366 3.633 8.25794 3.78008 8.10147C3.94594 7.92623 3.94594 7.94813 3.96158 6.13623L3.97723 4.44637L4.06485 4.29929C4.12118 4.20228 4.20255 4.12091 4.29956 4.06459L4.44664 3.97696L6.1365 3.96132C7.9484 3.94567 7.9265 3.94567 8.10174 3.77981C8.25821 3.63273 8.32393 3.47001 8.32393 3.22278C8.32705 2.94427 8.23004 2.73773 8.03289 2.60004L7.89833 2.50616L6.09581 2.4999C4.41221 2.49364 4.27452 2.49677 4.07111 2.5531Z" fill="#D6BBFB"/>
<path d="M13.0395 2.55936C12.6201 2.7659 12.5419 3.44184 12.9018 3.77981C13.077 3.94567 13.0551 3.94567 14.867 3.96132L16.5569 3.97696L16.704 4.06458C16.801 4.12091 16.8823 4.20228 16.9387 4.29929L17.0263 4.44637L17.0419 6.13623C17.0576 7.94813 17.0576 7.92623 17.2234 8.10147C17.3705 8.25794 17.5333 8.32366 17.7805 8.32366C18.059 8.32679 18.2655 8.22978 18.4032 8.03263L18.4971 7.89806L18.5065 6.12684C18.5159 4.12404 18.5159 4.12717 18.2843 3.64838C18.1028 3.27285 17.7304 2.90046 17.3549 2.71896C16.8823 2.49051 16.8949 2.49051 14.9265 2.49051C13.1991 2.49051 13.174 2.49051 13.0395 2.55936Z" fill="#D6BBFB"/>
<path d="M5.79157 5.46031C5.72272 5.4916 5.62884 5.55732 5.5819 5.60739C5.39726 5.80454 5.40039 5.7795 5.40039 7.59767C5.40039 9.14358 5.40665 9.27501 5.45985 9.3908C5.53183 9.55039 5.70707 9.70686 5.86041 9.74754C6.03879 9.79761 9.15564 9.79449 9.32462 9.74442C9.49048 9.69435 9.70328 9.48155 9.74709 9.32508C9.79403 9.15922 9.79403 6.02359 9.74709 5.86087C9.70641 5.70753 9.54994 5.53228 9.39034 5.46031C9.27455 5.40711 9.14312 5.40085 7.59095 5.40085C6.02627 5.40085 5.90735 5.40711 5.79157 5.46031ZM8.31071 7.59141V8.31116H7.59095H6.8712V7.59141V6.87165H7.59095H8.31071V7.59141Z" fill="#D6BBFB"/>
<path d="M11.6125 5.46031C11.4529 5.53228 11.2964 5.70753 11.2558 5.86087C11.2057 6.03924 11.2088 9.15609 11.2589 9.32508C11.309 9.49094 11.5124 9.69435 11.6782 9.74442C11.8472 9.79449 14.9641 9.79761 15.1424 9.74754C15.2958 9.70686 15.471 9.55039 15.543 9.3908C15.5962 9.27501 15.6024 9.14358 15.6024 7.59767C15.6024 5.7795 15.6056 5.80454 15.4209 5.60739C15.374 5.55732 15.2801 5.4916 15.2113 5.46031C15.0955 5.40711 14.9766 5.40085 13.4119 5.40085C11.8597 5.40085 11.7283 5.40711 11.6125 5.46031ZM14.1316 7.59141V8.31116H13.4119H12.6921V7.59141V6.87165H13.4119H14.1316V7.59141Z" fill="#D6BBFB"/>
<path d="M5.82598 11.2653C5.67265 11.3216 5.53182 11.4531 5.45985 11.6126C5.40665 11.7284 5.40039 11.8474 5.40039 13.412C5.40039 14.9767 5.40665 15.0956 5.45985 15.2114C5.49114 15.2803 5.55686 15.3742 5.60693 15.4211C5.80408 15.6057 5.77904 15.6026 7.59721 15.6026C9.14312 15.6026 9.27455 15.5963 9.39034 15.5431C9.54993 15.4712 9.7064 15.2928 9.75021 15.1332C9.77212 15.0518 9.78151 14.4604 9.77525 13.3401L9.76586 11.6721L9.67824 11.5407C9.6313 11.4687 9.53429 11.3717 9.46231 11.3247L9.33088 11.2371L7.64102 11.2309C6.25784 11.2246 5.92612 11.2309 5.82598 11.2653ZM8.3107 13.412V14.1318H7.59095H6.87119V13.412V12.6923H7.59095H8.3107V13.412Z" fill="#D6BBFB"/>
<path d="M11.6654 11.2559C11.5215 11.2997 11.3056 11.5219 11.2586 11.6783C11.1992 11.8786 11.2086 12.8487 11.2711 12.9989C11.3838 13.2743 11.6216 13.4183 11.9565 13.4183C12.2913 13.4183 12.5291 13.2743 12.6418 12.9989C12.72 12.8174 12.7107 11.7847 12.6324 11.6126C12.5604 11.453 12.3852 11.2966 12.2319 11.2559C12.0879 11.2152 11.8063 11.2152 11.6654 11.2559Z" fill="#D6BBFB"/>
<path d="M13.8377 11.2684C13.5654 11.3654 13.4121 11.6095 13.4121 11.9569C13.4121 12.2072 13.4778 12.3762 13.6186 12.5108C13.7908 12.6735 13.8909 12.6923 14.5136 12.6923C15.005 12.6923 15.1051 12.6829 15.2115 12.6328C15.3648 12.5608 15.49 12.4325 15.5526 12.2792C15.6214 12.1165 15.6152 11.7722 15.5432 11.6126C15.4712 11.453 15.296 11.2966 15.1427 11.2559C14.9643 11.2058 13.9879 11.2152 13.8377 11.2684Z" fill="#D6BBFB"/>
<path d="M2.98467 12.7017C2.79065 12.758 2.63731 12.88 2.55595 13.0459C2.49023 13.1773 2.49023 13.218 2.49023 14.9329C2.49023 16.8981 2.49023 16.895 2.71555 17.355C2.90331 17.7306 3.27258 18.1029 3.6481 18.2845C4.12689 18.516 4.12377 18.516 6.12656 18.5066L7.89779 18.4973L8.03235 18.4034C8.2295 18.2657 8.32651 18.0591 8.32338 17.7806C8.32338 17.5334 8.25766 17.3707 8.10119 17.2236C7.92595 17.0577 7.94786 17.0577 6.13595 17.0421L4.44609 17.0264L4.29901 16.9388C4.202 16.8825 4.12064 16.8011 4.06431 16.7041L3.97669 16.557L3.96104 14.8672C3.94852 13.5685 3.936 13.1554 3.90471 13.0834C3.76702 12.7705 3.35394 12.5984 2.98467 12.7017Z" fill="#D6BBFB"/>
<path d="M17.5897 12.6891C17.3707 12.7455 17.1798 12.9019 17.0984 13.0834C17.0671 13.1554 17.0546 13.5685 17.0421 14.8672L17.0265 16.557L16.9388 16.7041C16.8825 16.8011 16.8011 16.8825 16.7041 16.9388L16.5571 17.0264L14.8672 17.0421C13.0553 17.0577 13.0772 17.0577 12.9019 17.2236C12.7455 17.3707 12.6798 17.5334 12.6798 17.7806C12.6766 18.0591 12.7736 18.2657 12.9708 18.4034L13.1054 18.4973L14.8766 18.5066C16.8794 18.516 16.8762 18.516 17.355 18.2845C17.7306 18.1029 18.103 17.7306 18.2845 17.355C18.516 16.8762 18.516 16.8794 18.5066 14.8766L18.4973 13.1053L18.4034 12.9708C18.3502 12.8925 18.25 12.8049 18.1687 12.7642C18.0153 12.686 17.7368 12.6485 17.5897 12.6891Z" fill="#D6BBFB"/>
<path d="M12.4358 14.1631C12.2731 14.2131 12.1291 14.3258 12.0415 14.4697C11.9695 14.598 11.957 14.6512 11.957 14.8672C11.957 15.1707 12.0384 15.3428 12.2481 15.493L12.3858 15.5869L13.7032 15.5963C14.6013 15.6026 15.0614 15.5963 15.1427 15.5713C15.2961 15.5275 15.4744 15.3679 15.5433 15.2114C15.6215 15.0424 15.6215 14.6919 15.5433 14.5229C15.4682 14.3602 15.3368 14.2382 15.1678 14.1787C15.052 14.138 14.8298 14.1318 13.7752 14.1349C13.0867 14.1349 12.4828 14.1474 12.4358 14.1631Z" fill="#D6BBFB"/>
</svg>
