<svg width="24" height="24" viewBox="0 0 24 24" fill="none" xmlns="http://www.w3.org/2000/svg">
<path d="M4.28494 2.46367C3.8268 2.58759 3.49259 2.78287 3.13959 3.13962C2.88048 3.39497 2.7866 3.52265 2.65892 3.77801C2.38479 4.33754 2.38479 4.33003 2.39606 6.74089L2.40732 8.87763L2.51998 9.0391C2.68521 9.27568 2.93306 9.39209 3.26727 9.38834C3.56394 9.38834 3.75921 9.30948 3.93571 9.12172C4.13473 8.91142 4.13473 8.93771 4.15351 6.76342L4.17229 4.73559L4.27743 4.5591C4.34503 4.44268 4.44266 4.34505 4.55908 4.27745L4.73557 4.17231L6.7634 4.15353C8.93769 4.13475 8.9114 4.13475 9.1217 3.93573C9.30946 3.75923 9.38832 3.56396 9.38832 3.26729C9.39208 2.93308 9.27566 2.68523 9.03908 2.52L8.87761 2.40734L6.71459 2.39983C4.69426 2.39232 4.52903 2.39608 4.28494 2.46367Z" fill="#383A3C"/>
<path d="M15.0474 2.47118C14.5442 2.71903 14.4503 3.53016 14.8821 3.93573C15.0924 4.13475 15.0662 4.13475 17.2404 4.15353L19.2683 4.17231L19.4448 4.27745C19.5612 4.34505 19.6588 4.44268 19.7264 4.5591L19.8316 4.73559L19.8503 6.76342C19.8691 8.93771 19.8691 8.91142 20.0681 9.12172C20.2446 9.30948 20.4399 9.38834 20.7366 9.38834C21.0708 9.39209 21.3186 9.27568 21.4839 9.0391L21.5965 8.87763L21.6078 6.75216C21.6191 4.3488 21.6191 4.35256 21.3412 3.77801C21.1234 3.32738 20.6765 2.8805 20.2259 2.6627C19.6588 2.38857 19.6738 2.38857 17.3118 2.38857C15.2389 2.38857 15.2089 2.38857 15.0474 2.47118Z" fill="#383A3C"/>
<path d="M6.35027 5.95235C6.26765 5.9899 6.155 6.06876 6.09867 6.12884C5.87711 6.36542 5.88086 6.33538 5.88086 8.51718C5.88086 10.3723 5.88837 10.53 5.95221 10.6689C6.03858 10.8604 6.24888 11.0482 6.43288 11.097C6.64693 11.1571 10.3872 11.1534 10.5899 11.0933C10.789 11.0332 11.0443 10.7778 11.0969 10.5901C11.1532 10.391 11.1532 6.62829 11.0969 6.43302C11.0481 6.24901 10.8603 6.03872 10.6688 5.95235C10.5299 5.88851 10.3721 5.881 8.50953 5.881C6.63191 5.881 6.48921 5.88851 6.35027 5.95235ZM9.37324 8.50967V9.37337H8.50953H7.64583V8.50967V7.64596H8.50953H9.37324V8.50967Z" fill="#383A3C"/>
<path d="M13.3356 5.95235C13.1441 6.03872 12.9563 6.24901 12.9075 6.43302C12.8474 6.64707 12.8512 10.3873 12.9112 10.5901C12.9713 10.7891 13.2154 11.0332 13.4144 11.0933C13.6172 11.1534 17.3575 11.1571 17.5715 11.097C17.7555 11.0482 17.9658 10.8604 18.0522 10.6689C18.116 10.53 18.1235 10.3723 18.1235 8.51718C18.1235 6.33538 18.1273 6.36542 17.9057 6.12884C17.8494 6.06876 17.7367 5.9899 17.6541 5.95235C17.5152 5.88851 17.3725 5.881 15.4949 5.881C13.6322 5.881 13.4745 5.88851 13.3356 5.95235ZM16.3586 8.50967V9.37337H15.4949H14.6311V8.50967V7.64596H15.4949H16.3586V8.50967Z" fill="#383A3C"/>
<path d="M6.39157 12.9183C6.20757 12.9859 6.03858 13.1436 5.95221 13.3351C5.88837 13.4741 5.88086 13.6167 5.88086 15.4944C5.88086 17.372 5.88837 17.5147 5.95221 17.6536C5.98976 17.7363 6.06862 17.8489 6.12871 17.9052C6.36529 18.1268 6.33524 18.123 8.51704 18.123C10.3721 18.123 10.5299 18.1155 10.6688 18.0517C10.8603 17.9653 11.0481 17.7513 11.1006 17.5598C11.1269 17.4621 11.1382 16.7524 11.1307 15.408L11.1194 13.4065L11.0143 13.2487C10.9579 13.1624 10.8415 13.046 10.7552 12.9896L10.5974 12.8845L8.56961 12.877C6.9098 12.8695 6.51174 12.877 6.39157 12.9183ZM9.37324 15.4944V16.3581H8.50953H7.64582V15.4944V14.6307H8.50953H9.37324V15.4944Z" fill="#383A3C"/>
<path d="M13.3993 12.907C13.2266 12.9596 12.9675 13.2262 12.9111 13.414C12.8398 13.6543 12.851 14.8184 12.9262 14.9987C13.0613 15.3292 13.3467 15.5019 13.7486 15.5019C14.1504 15.5019 14.4358 15.3292 14.5709 14.9987C14.6648 14.7809 14.6536 13.5417 14.5597 13.3351C14.4733 13.1436 14.263 12.9558 14.079 12.907C13.9063 12.8582 13.5683 12.8582 13.3993 12.907Z" fill="#383A3C"/>
<path d="M16.0049 12.922C15.6781 13.0385 15.4941 13.3314 15.4941 13.7482C15.4941 14.0486 15.573 14.2514 15.742 14.4129C15.9485 14.6081 16.0687 14.6307 16.816 14.6307C17.4056 14.6307 17.5257 14.6194 17.6534 14.5593C17.8374 14.473 17.9876 14.319 18.0627 14.135C18.1453 13.9397 18.1378 13.5266 18.0515 13.3351C17.9651 13.1436 17.7548 12.9558 17.5708 12.907C17.3567 12.8469 16.1851 12.8582 16.0049 12.922Z" fill="#383A3C"/>
<path d="M2.982 14.642C2.74918 14.7095 2.56517 14.856 2.46753 15.055C2.38867 15.2127 2.38867 15.2616 2.38867 17.3194C2.38867 19.6777 2.38867 19.674 2.65905 20.226C2.88436 20.6766 3.32748 21.1235 3.77811 21.3413C4.35266 21.6192 4.34891 21.6192 6.75226 21.6079L8.87773 21.5967L9.03921 21.484C9.27579 21.3188 9.3922 21.0709 9.38845 20.7367C9.38845 20.44 9.30959 20.2448 9.12182 20.0683C8.91153 19.8693 8.93782 19.8693 6.76353 19.8505L4.7357 19.8317L4.5592 19.7266C4.44279 19.659 4.34515 19.5613 4.27756 19.4449L4.17241 19.2684L4.15364 17.2406C4.13862 15.6822 4.12359 15.1865 4.08604 15.1001C3.92081 14.7246 3.42512 14.518 2.982 14.642Z" fill="#383A3C"/>
<path d="M20.5073 14.6269C20.2444 14.6945 20.0154 14.8823 19.9177 15.1001C19.8802 15.1865 19.8652 15.6822 19.8501 17.2406L19.8314 19.2684L19.7262 19.4449C19.6586 19.5613 19.561 19.659 19.4446 19.7266L19.2681 19.8317L17.2402 19.8505C15.066 19.8693 15.0922 19.8693 14.8819 20.0683C14.6942 20.2448 14.6153 20.44 14.6153 20.7367C14.6116 21.0709 14.728 21.3188 14.9646 21.484L15.126 21.5967L17.2515 21.6079C19.6549 21.6192 19.6511 21.6192 20.2257 21.3413C20.6763 21.1235 21.1232 20.6766 21.341 20.226C21.6189 19.6514 21.6189 19.6552 21.6076 17.2518L21.5963 15.1264L21.4837 14.9649C21.4198 14.871 21.2997 14.7659 21.202 14.7171C21.018 14.6232 20.6838 14.5781 20.5073 14.6269Z" fill="#383A3C"/>
<path d="M14.3226 16.3957C14.1273 16.4558 13.9546 16.5909 13.8494 16.7637C13.7631 16.9177 13.748 16.9815 13.748 17.2406C13.748 17.6049 13.8457 17.8114 14.0973 17.9917L14.2625 18.1043L15.8435 18.1156C16.9212 18.1231 17.4732 18.1156 17.5709 18.0855C17.7549 18.033 17.9689 17.8414 18.0516 17.6537C18.1454 17.4509 18.1454 17.0303 18.0516 16.8275C17.9614 16.6323 17.8037 16.4858 17.6009 16.4145C17.462 16.3656 17.1954 16.3581 15.9298 16.3619C15.1037 16.3619 14.3789 16.3769 14.3226 16.3957Z" fill="#383A3C"/>
</svg>
