<svg width="16" height="16" viewBox="0 0 16 16" fill="none" xmlns="http://www.w3.org/2000/svg">
<path d="M14.1835 0.965486C14.062 1.01336 10.9354 2.25809 7.24174 3.7385L0.528312 6.42682L0.318402 6.63305C0.160049 6.7914 0.0974449 6.88346 0.0532534 7.03445C-0.0572253 7.4064 0.00537962 7.77834 0.23002 8.06927C0.373642 8.26077 0.53936 8.35651 1.18382 8.61798C1.59259 8.78738 4.4945 9.5681 4.65654 9.55337C5.23542 9.52727 5.38641 8.91996 5.23542 8.52223C5.14704 8.29759 2.15971 7.68996 1.50421 7.43217C1.42319 7.39903 2.29965 7.04182 8.04086 4.74754C11.6867 3.2929 14.688 2.09973 14.7101 2.09973C14.7359 2.09973 14.7617 2.12183 14.769 2.14393C14.7801 2.1697 14.2387 4.75859 13.5648 7.89619C12.2869 13.8547 12.3238 13.7 12.1396 13.7C12.1065 13.7 11.3258 13.1145 10.4088 12.4C9.49182 11.6856 8.43491 10.8607 8.05928 10.5698C7.68365 10.2788 7.36326 10.0321 7.34853 10.0174C7.3338 10.0026 8.36125 8.93837 9.63912 7.64945C10.9133 6.36421 11.985 5.25943 12.0144 5.19682C12.1323 4.9685 12.0586 4.61128 11.8597 4.45661C11.7161 4.34245 11.4989 4.2909 11.3442 4.3314C11.2006 4.37191 4.38402 8.38598 4.23303 8.52223C4.04154 8.69532 3.99735 8.97151 4.12255 9.2293C4.22199 9.44289 4.4098 9.55337 4.65654 9.55337C4.8333 9.55337 4.90695 9.51654 6.148 8.78738C6.86611 8.36388 7.48847 7.99193 7.53635 7.96247C7.72416 7.84095 7.58054 8.00666 6.94344 8.65112C6.14431 9.4613 6.09276 9.54232 6.09276 10.0174C6.08907 10.2862 6.10381 10.3599 6.18851 10.5329C6.24375 10.6434 6.35054 10.7944 6.42788 10.8681C6.63779 11.0706 11.3663 14.6869 11.5173 14.7643C12.2096 15.1104 13.1008 14.8158 13.4322 14.1309C13.5243 13.9431 13.7526 12.9193 14.758 8.19448C15.4245 5.0532 15.9806 2.4238 15.9917 2.35015C16.0248 2.17339 15.9548 1.79776 15.8591 1.60994C15.7449 1.3853 15.4724 1.11647 15.2478 1.00599C14.9568 0.862372 14.5076 0.847641 14.1835 0.965486Z" fill="#98A2B3"/>
</svg>
