<svg width="361" height="320" viewBox="0 0 361 320" fill="none" xmlns="http://www.w3.org/2000/svg">
<g filter="url(#filter0_dd_7216_141063)">
<g clip-path="url(#clip0_7216_141063)">
<rect x="150.069" y="105.76" width="60.48" height="60.48" rx="15.12" fill="white"/>
<rect x="150.069" y="105.76" width="60.48" height="60.48" rx="15.12" fill="url(#paint0_linear_7216_141063)"/>
<path d="M179.093 117.981C176.827 118.263 174.569 119.588 173.165 121.447C172.545 122.262 171.895 123.611 171.636 124.607C171.385 125.556 171.299 127.21 171.44 128.269C172.051 132.84 175.07 137.53 178.231 138.808C179.125 139.169 179.587 139.247 180.583 139.2C181.971 139.145 183.092 138.659 184.371 137.569C186.48 135.773 188.323 132.487 189.028 129.257C189.177 128.567 189.201 128.206 189.201 126.912C189.209 125.226 189.123 124.748 188.621 123.485C187.123 119.729 183.21 117.471 179.093 117.981Z" fill="url(#paint1_linear_7216_141063)"/>
<path d="M172.545 137.969C169.417 138.643 166.711 140.698 165.268 143.521C164.759 144.509 164.359 145.693 164.194 146.736C164.022 147.747 164.069 149.747 164.273 150.476C164.869 152.601 166.358 153.621 169.409 153.973C170.726 154.13 189.891 154.13 191.208 153.973C194.259 153.621 195.749 152.601 196.345 150.476C196.549 149.747 196.596 147.747 196.423 146.736C196.164 145.144 195.427 143.387 194.478 142.093C193.553 140.831 192.063 139.576 190.66 138.87C189.609 138.345 187.782 137.812 187.013 137.812C186.786 137.812 186.754 137.843 186.707 138.078C186.574 138.776 185.155 140.439 183.273 142.093C182.183 143.05 180.411 144.477 180.309 144.477C180.207 144.477 178.434 143.05 177.344 142.093C175.463 140.439 174.043 138.776 173.91 138.078C173.863 137.828 173.847 137.812 173.533 137.82C173.361 137.82 172.914 137.89 172.545 137.969ZM189.405 144.681C189.452 144.791 189.483 145.246 189.483 145.701V146.516H190.354C190.832 146.516 191.287 146.555 191.373 146.594C191.506 146.673 191.522 146.767 191.522 147.614C191.522 148.821 191.553 148.79 190.377 148.79H189.483V149.606C189.483 150.06 189.452 150.515 189.405 150.625C189.326 150.829 189.326 150.829 188.354 150.829C187.46 150.829 187.366 150.813 187.288 150.68C187.248 150.594 187.209 150.139 187.209 149.661V148.79H186.339C185.86 148.79 185.406 148.751 185.319 148.712C185.186 148.633 185.17 148.539 185.17 147.653C185.17 146.767 185.186 146.673 185.319 146.594C185.406 146.555 185.86 146.516 186.339 146.516H187.209V145.646C187.209 145.167 187.248 144.712 187.288 144.626C187.366 144.493 187.46 144.477 188.354 144.477C189.326 144.477 189.326 144.477 189.405 144.681Z" fill="url(#paint2_linear_7216_141063)"/>
</g>
<rect x="150.352" y="106.044" width="59.913" height="59.913" rx="14.8365" stroke="#D0D5DD" stroke-width="0.567"/>
</g>
<path d="M134.412 205.24H131.599L136.72 190.695H139.973L145.101 205.24H142.288L138.403 193.677H138.29L134.412 205.24ZM134.504 199.537H142.175V201.653H134.504V199.537ZM146.15 205.24L146.136 203.124H146.512C146.797 203.124 147.036 203.06 147.23 202.932C147.424 202.804 147.585 202.591 147.713 202.293C147.841 201.99 147.94 201.582 148.011 201.071C148.082 200.56 148.132 199.923 148.16 199.16L148.352 194.331H156.306V205.24H153.821V196.44H150.689L150.518 199.956C150.475 200.865 150.374 201.653 150.213 202.321C150.056 202.984 149.834 203.531 149.545 203.962C149.261 204.392 148.904 204.714 148.473 204.927C148.042 205.136 147.533 205.24 146.946 205.24H146.15ZM158.895 205.24V194.331H161.466V198.734H162.404L165.685 194.331H168.782L164.74 199.686L168.824 205.24H165.713L162.723 201.128H161.466V205.24H158.895ZM174.591 205.453C173.526 205.453 172.603 205.219 171.821 204.75C171.04 204.281 170.434 203.625 170.003 202.783C169.577 201.94 169.364 200.955 169.364 199.828C169.364 198.701 169.577 197.714 170.003 196.866C170.434 196.019 171.04 195.361 171.821 194.892C172.603 194.423 173.526 194.189 174.591 194.189C175.657 194.189 176.58 194.423 177.361 194.892C178.142 195.361 178.746 196.019 179.172 196.866C179.603 197.714 179.819 198.701 179.819 199.828C179.819 200.955 179.603 201.94 179.172 202.783C178.746 203.625 178.142 204.281 177.361 204.75C176.58 205.219 175.657 205.453 174.591 205.453ZM174.605 203.393C175.183 203.393 175.666 203.235 176.054 202.918C176.443 202.596 176.731 202.165 176.921 201.625C177.115 201.085 177.212 200.484 177.212 199.821C177.212 199.153 177.115 198.55 176.921 198.01C176.731 197.465 176.443 197.032 176.054 196.71C175.666 196.388 175.183 196.227 174.605 196.227C174.014 196.227 173.521 196.388 173.128 196.71C172.74 197.032 172.449 197.465 172.255 198.01C172.065 198.55 171.971 199.153 171.971 199.821C171.971 200.484 172.065 201.085 172.255 201.625C172.449 202.165 172.74 202.596 173.128 202.918C173.521 203.235 174.014 203.393 174.605 203.393ZM182.114 205.24V190.695H187.683C188.734 190.695 189.607 190.86 190.303 191.192C191.004 191.518 191.527 191.966 191.873 192.534C192.223 193.102 192.398 193.746 192.398 194.466C192.398 195.058 192.285 195.564 192.058 195.986C191.83 196.402 191.525 196.741 191.141 197.001C190.758 197.262 190.329 197.449 189.856 197.562V197.704C190.372 197.733 190.867 197.892 191.34 198.18C191.818 198.464 192.209 198.867 192.512 199.388C192.815 199.909 192.967 200.538 192.967 201.277C192.967 202.03 192.784 202.707 192.42 203.308C192.055 203.905 191.506 204.376 190.772 204.722C190.038 205.067 189.115 205.24 188.002 205.24H182.114ZM184.749 203.038H187.583C188.54 203.038 189.228 202.856 189.65 202.491C190.076 202.122 190.289 201.649 190.289 201.071C190.289 200.64 190.183 200.252 189.969 199.906C189.756 199.556 189.453 199.281 189.06 199.082C188.667 198.879 188.199 198.777 187.654 198.777H184.749V203.038ZM184.749 196.881H187.356C187.81 196.881 188.22 196.798 188.585 196.632C188.949 196.462 189.236 196.222 189.444 195.915C189.657 195.602 189.763 195.233 189.763 194.807C189.763 194.243 189.565 193.779 189.167 193.415C188.774 193.05 188.189 192.868 187.413 192.868H184.749V196.881ZM195.145 209.331V194.331H197.674V196.135H197.823C197.955 195.87 198.142 195.588 198.384 195.29C198.625 194.987 198.952 194.729 199.364 194.516C199.776 194.298 200.301 194.189 200.941 194.189C201.783 194.189 202.543 194.404 203.221 194.835C203.902 195.261 204.442 195.893 204.84 196.731C205.242 197.565 205.444 198.588 205.444 199.8C205.444 200.998 205.247 202.016 204.854 202.854C204.461 203.692 203.926 204.331 203.249 204.771C202.572 205.212 201.805 205.432 200.948 205.432C200.323 205.432 199.804 205.328 199.392 205.119C198.98 204.911 198.649 204.66 198.398 204.366C198.152 204.068 197.96 203.786 197.823 203.521H197.716V209.331H195.145ZM197.667 199.785C197.667 200.491 197.766 201.109 197.965 201.639C198.168 202.169 198.46 202.584 198.838 202.882C199.222 203.176 199.686 203.322 200.23 203.322C200.799 203.322 201.275 203.171 201.658 202.868C202.042 202.56 202.33 202.141 202.525 201.611C202.723 201.076 202.823 200.467 202.823 199.785C202.823 199.108 202.726 198.507 202.532 197.981C202.337 197.456 202.049 197.044 201.665 196.746C201.282 196.447 200.803 196.298 200.23 196.298C199.681 196.298 199.215 196.443 198.831 196.731C198.448 197.02 198.157 197.425 197.958 197.946C197.764 198.467 197.667 199.08 197.667 199.785ZM210.784 205.46C210.093 205.46 209.471 205.337 208.917 205.091C208.367 204.84 207.932 204.471 207.61 203.983C207.292 203.495 207.134 202.894 207.134 202.179C207.134 201.563 207.248 201.054 207.475 200.652C207.702 200.249 208.012 199.927 208.405 199.686C208.798 199.445 209.241 199.262 209.733 199.139C210.23 199.011 210.744 198.919 211.275 198.862C211.914 198.796 212.432 198.737 212.83 198.685C213.228 198.628 213.516 198.543 213.696 198.429C213.881 198.311 213.973 198.128 213.973 197.882V197.839C213.973 197.304 213.815 196.89 213.498 196.597C213.18 196.303 212.723 196.156 212.127 196.156C211.497 196.156 210.998 196.293 210.628 196.568C210.264 196.843 210.017 197.167 209.89 197.541L207.489 197.2C207.678 196.537 207.991 195.983 208.426 195.538C208.862 195.088 209.395 194.752 210.025 194.53C210.654 194.302 211.35 194.189 212.113 194.189C212.638 194.189 213.161 194.25 213.682 194.374C214.203 194.497 214.679 194.7 215.11 194.984C215.541 195.264 215.886 195.645 216.147 196.128C216.412 196.611 216.544 197.214 216.544 197.939V205.24H214.073V203.741H213.988C213.831 204.044 213.611 204.329 213.327 204.594C213.048 204.854 212.695 205.065 212.269 205.226C211.847 205.382 211.353 205.46 210.784 205.46ZM211.452 203.571C211.968 203.571 212.416 203.469 212.794 203.266C213.173 203.057 213.464 202.783 213.668 202.442C213.876 202.101 213.98 201.729 213.98 201.327V200.041C213.9 200.107 213.763 200.169 213.569 200.226C213.379 200.283 213.166 200.332 212.929 200.375C212.693 200.418 212.458 200.455 212.226 200.489C211.994 200.522 211.793 200.55 211.623 200.574C211.239 200.626 210.896 200.711 210.593 200.829C210.29 200.948 210.051 201.114 209.875 201.327C209.7 201.535 209.613 201.805 209.613 202.136C209.613 202.61 209.785 202.967 210.131 203.209C210.477 203.45 210.917 203.571 211.452 203.571ZM228.242 194.331V205.24H225.77V194.331H228.242ZM227.084 199.26V201.362C226.805 201.485 226.488 201.597 226.132 201.696C225.782 201.791 225.41 201.866 225.017 201.923C224.629 201.98 224.241 202.008 223.853 202.008C222.394 202.008 221.241 201.682 220.394 201.028C219.551 200.37 219.13 199.345 219.13 197.953V194.317H221.587V197.953C221.587 198.422 221.67 198.798 221.836 199.082C222.001 199.366 222.252 199.575 222.588 199.707C222.925 199.835 223.346 199.899 223.853 199.899C224.421 199.899 224.961 199.842 225.472 199.729C225.983 199.615 226.521 199.459 227.084 199.26Z" fill="#101828"/>
<defs>
<filter id="filter0_dd_7216_141063" x="144.399" y="101.98" width="71.82" height="71.82" filterUnits="userSpaceOnUse" color-interpolation-filters="sRGB">
<feFlood flood-opacity="0" result="BackgroundImageFix"/>
<feColorMatrix in="SourceAlpha" type="matrix" values="0 0 0 0 0 0 0 0 0 0 0 0 0 0 0 0 0 0 127 0" result="hardAlpha"/>
<feOffset dy="1.89"/>
<feGaussianBlur stdDeviation="1.89"/>
<feColorMatrix type="matrix" values="0 0 0 0 0.0627451 0 0 0 0 0.0941176 0 0 0 0 0.156863 0 0 0 0.06 0"/>
<feBlend mode="normal" in2="BackgroundImageFix" result="effect1_dropShadow_7216_141063"/>
<feColorMatrix in="SourceAlpha" type="matrix" values="0 0 0 0 0 0 0 0 0 0 0 0 0 0 0 0 0 0 127 0" result="hardAlpha"/>
<feOffset dy="1.89"/>
<feGaussianBlur stdDeviation="2.835"/>
<feColorMatrix type="matrix" values="0 0 0 0 0.0627451 0 0 0 0 0.0941176 0 0 0 0 0.156863 0 0 0 0.1 0"/>
<feBlend mode="normal" in2="effect1_dropShadow_7216_141063" result="effect2_dropShadow_7216_141063"/>
<feBlend mode="normal" in="SourceGraphic" in2="effect2_dropShadow_7216_141063" result="shape"/>
</filter>
<linearGradient id="paint0_linear_7216_141063" x1="180.309" y1="105.76" x2="180.309" y2="175.252" gradientUnits="userSpaceOnUse">
<stop stop-color="white"/>
<stop offset="1" stop-color="#D0D5DD"/>
</linearGradient>
<linearGradient id="paint1_linear_7216_141063" x1="171.372" y1="117.909" x2="192.342" y2="135.46" gradientUnits="userSpaceOnUse">
<stop stop-color="#53389E"/>
<stop offset="1" stop-color="#7F56D9"/>
</linearGradient>
<linearGradient id="paint2_linear_7216_141063" x1="164.088" y1="137.812" x2="177.139" y2="163.821" gradientUnits="userSpaceOnUse">
<stop stop-color="#53389E"/>
<stop offset="1" stop-color="#7F56D9"/>
</linearGradient>
<clipPath id="clip0_7216_141063">
<rect x="150.069" y="105.76" width="60.48" height="60.48" rx="15.12" fill="white"/>
</clipPath>
</defs>
</svg>
