<svg width="13" height="12" viewBox="0 0 13 12" fill="none" xmlns="http://www.w3.org/2000/svg">
<path d="M11.124 5C11.124 8.5 6.62402 11.5 6.62402 11.5C6.62402 11.5 2.12402 8.5 2.12402 5C2.12402 3.80653 2.59813 2.66193 3.44204 1.81802C4.28596 0.974106 5.43055 0.5 6.62402 0.5C7.8175 0.5 8.96209 0.974106 9.806 1.81802C10.6499 2.66193 11.124 3.80653 11.124 5Z" stroke="#667085" stroke-linecap="round" stroke-linejoin="round"/>
<path d="M6.62402 6.5C7.45245 6.5 8.12402 5.82843 8.12402 5C8.12402 4.17157 7.45245 3.5 6.62402 3.5C5.7956 3.5 5.12402 4.17157 5.12402 5C5.12402 5.82843 5.7956 6.5 6.62402 6.5Z" stroke="#667085" stroke-linecap="round" stroke-linejoin="round"/>
</svg>
