<svg width="33" height="32" viewBox="0 0 33 32" fill="none" xmlns="http://www.w3.org/2000/svg">
<rect x="0.624023" width="32" height="32" rx="16" fill="#F2F4F7"/>
<g clip-path="url(#clip0_8142_1458)">
<path d="M16.6243 18C17.7289 18 18.6243 17.1045 18.6243 16C18.6243 14.8954 17.7289 14 16.6243 14C15.5198 14 14.6243 14.8954 14.6243 16C14.6243 17.1045 15.5198 18 16.6243 18Z" stroke="#475467" stroke-width="1.33333" stroke-linecap="round" stroke-linejoin="round"/>
<path d="M21.5577 18C21.4689 18.201 21.4425 18.4241 21.4817 18.6404C21.5209 18.8566 21.624 19.0562 21.7777 19.2133L21.8177 19.2533C21.9417 19.3771 22.04 19.5242 22.1071 19.686C22.1742 19.8479 22.2087 20.0214 22.2087 20.1966C22.2087 20.3718 22.1742 20.5453 22.1071 20.7072C22.04 20.8691 21.9417 21.0161 21.8177 21.14C21.6939 21.2639 21.5468 21.3623 21.3849 21.4294C21.2231 21.4965 21.0496 21.531 20.8743 21.531C20.6991 21.531 20.5256 21.4965 20.3638 21.4294C20.2019 21.3623 20.0548 21.2639 19.931 21.14L19.891 21.1C19.7339 20.9463 19.5343 20.8432 19.3181 20.804C19.1018 20.7647 18.8788 20.7912 18.6777 20.88C18.4805 20.9645 18.3123 21.1048 18.1939 21.2836C18.0754 21.4625 18.0119 21.6721 18.011 21.8866V22C18.011 22.3536 17.8705 22.6927 17.6205 22.9428C17.3704 23.1928 17.0313 23.3333 16.6777 23.3333C16.3241 23.3333 15.9849 23.1928 15.7349 22.9428C15.4848 22.6927 15.3443 22.3536 15.3443 22V21.94C15.3392 21.7193 15.2678 21.5053 15.1394 21.3258C15.011 21.1462 14.8315 21.0095 14.6243 20.9333C14.4233 20.8445 14.2002 20.8181 13.984 20.8573C13.7677 20.8965 13.5681 20.9996 13.411 21.1533L13.371 21.1933C13.2472 21.3173 13.1001 21.4156 12.9383 21.4827C12.7764 21.5498 12.6029 21.5843 12.4277 21.5843C12.2525 21.5843 12.079 21.5498 11.9171 21.4827C11.7552 21.4156 11.6082 21.3173 11.4843 21.1933C11.3604 21.0695 11.262 20.9224 11.1949 20.7605C11.1278 20.5987 11.0933 20.4252 11.0933 20.25C11.0933 20.0747 11.1278 19.9012 11.1949 19.7394C11.262 19.5775 11.3604 19.4305 11.4843 19.3066L11.5243 19.2666C11.678 19.1095 11.7811 18.9099 11.8204 18.6937C11.8596 18.4774 11.8331 18.2544 11.7443 18.0533C11.6598 17.8561 11.5195 17.6879 11.3407 17.5695C11.1618 17.451 10.9522 17.3875 10.7377 17.3866H10.6243C10.2707 17.3866 9.93159 17.2461 9.68154 16.9961C9.43149 16.7461 9.29102 16.4069 9.29102 16.0533C9.29102 15.6997 9.43149 15.3605 9.68154 15.1105C9.93159 14.8604 10.2707 14.72 10.6243 14.72H10.6843C10.905 14.7148 11.119 14.6434 11.2985 14.515C11.4781 14.3866 11.6148 14.2071 11.691 14C11.7798 13.7989 11.8062 13.5758 11.767 13.3596C11.7278 13.1433 11.6247 12.9437 11.471 12.7866L11.431 12.7466C11.307 12.6228 11.2087 12.4757 11.1416 12.3139C11.0745 12.152 11.04 11.9785 11.04 11.8033C11.04 11.6281 11.0745 11.4546 11.1416 11.2927C11.2087 11.1308 11.307 10.9838 11.431 10.86C11.5548 10.736 11.7019 10.6376 11.8638 10.5705C12.0256 10.5034 12.1991 10.4689 12.3743 10.4689C12.5496 10.4689 12.7231 10.5034 12.8849 10.5705C13.0468 10.6376 13.1939 10.736 13.3177 10.86L13.3577 10.9C13.5148 11.0537 13.7144 11.1567 13.9306 11.196C14.1469 11.2352 14.3699 11.2087 14.571 11.12H14.6243C14.8215 11.0355 14.9897 10.8951 15.1081 10.7163C15.2266 10.5374 15.2902 10.3278 15.291 10.1133V9.99996C15.291 9.64634 15.4315 9.3072 15.6815 9.05715C15.9316 8.8071 16.2707 8.66663 16.6243 8.66663C16.978 8.66663 17.3171 8.8071 17.5672 9.05715C17.8172 9.3072 17.9577 9.64634 17.9577 9.99996V10.06C17.9585 10.2745 18.0221 10.4841 18.1406 10.6629C18.259 10.8418 18.4272 10.9821 18.6243 11.0666C18.8254 11.1554 19.0485 11.1818 19.2647 11.1426C19.481 11.1034 19.6806 11.0003 19.8377 10.8466L19.8777 10.8066C20.0015 10.6827 20.1486 10.5843 20.3104 10.5172C20.4723 10.4501 20.6458 10.4156 20.821 10.4156C20.9962 10.4156 21.1697 10.4501 21.3316 10.5172C21.4935 10.5843 21.6405 10.6827 21.7643 10.8066C21.8883 10.9305 21.9867 11.0775 22.0538 11.2394C22.1209 11.4012 22.1554 11.5747 22.1554 11.75C22.1554 11.9252 22.1209 12.0987 22.0538 12.2605C21.9867 12.4224 21.8883 12.5695 21.7643 12.6933L21.7243 12.7333C21.5707 12.8904 21.4676 13.09 21.4283 13.3062C21.3891 13.5225 21.4156 13.7455 21.5043 13.9466V14C21.5889 14.1971 21.7292 14.3653 21.908 14.4838C22.0869 14.6022 22.2965 14.6658 22.511 14.6666H22.6243C22.978 14.6666 23.3171 14.8071 23.5672 15.0572C23.8172 15.3072 23.9577 15.6463 23.9577 16C23.9577 16.3536 23.8172 16.6927 23.5672 16.9428C23.3171 17.1928 22.978 17.3333 22.6243 17.3333H22.5643C22.3498 17.3341 22.1402 17.3977 21.9614 17.5162C21.7825 17.6346 21.6422 17.8028 21.5577 18Z" stroke="#475467" stroke-width="1.33333" stroke-linecap="round" stroke-linejoin="round"/>
</g>
<defs>
<clipPath id="clip0_8142_1458">
<rect width="16" height="16" fill="white" transform="translate(8.62402 8)"/>
</clipPath>
</defs>
</svg>
