<svg width="56" height="56" viewBox="0 0 56 56" fill="none" xmlns="http://www.w3.org/2000/svg">
<rect x="4" y="4" width="48" height="48" rx="24" fill="#F4EBFF"/>
<rect x="4" y="4" width="48" height="48" rx="24" stroke="#F9F5FF" stroke-width="8"/>
<path d="M20.2849 18.4637C19.8268 18.5876 19.4926 18.7829 19.1396 19.1396C18.8805 19.395 18.7866 19.5226 18.6589 19.778C18.3848 20.3375 18.3848 20.33 18.3961 22.7409L18.4073 24.8776L18.52 25.0391C18.6852 25.2757 18.9331 25.3921 19.2673 25.3883C19.5639 25.3883 19.7592 25.3095 19.9357 25.1217C20.1347 24.9114 20.1347 24.9377 20.1535 22.7634L20.1723 20.7356L20.2774 20.5591C20.345 20.4427 20.4427 20.345 20.5591 20.2775L20.7356 20.1723L22.7634 20.1535C24.9377 20.1348 24.9114 20.1348 25.1217 19.9357C25.3095 19.7592 25.3883 19.564 25.3883 19.2673C25.3921 18.9331 25.2757 18.6852 25.0391 18.52L24.8776 18.4073L22.7146 18.3998C20.6943 18.3923 20.529 18.3961 20.2849 18.4637Z" fill="#7F56D9"/>
<path d="M31.0474 18.4712C30.5442 18.719 30.4503 19.5302 30.8821 19.9357C31.0924 20.1348 31.0662 20.1348 33.2404 20.1535L35.2683 20.1723L35.4448 20.2775C35.5612 20.345 35.6588 20.4427 35.7264 20.5591L35.8316 20.7356L35.8503 22.7634C35.8691 24.9377 35.8691 24.9114 36.0681 25.1217C36.2446 25.3095 36.4399 25.3883 36.7366 25.3883C37.0708 25.3921 37.3186 25.2757 37.4839 25.0391L37.5965 24.8776L37.6078 22.7522C37.6191 20.3488 37.6191 20.3526 37.3412 19.778C37.1234 19.3274 36.6765 18.8805 36.2259 18.6627C35.6588 18.3886 35.6738 18.3886 33.3118 18.3886C31.2389 18.3886 31.2089 18.3886 31.0474 18.4712Z" fill="#7F56D9"/>
<path d="M22.3503 21.9523C22.2677 21.9899 22.155 22.0688 22.0987 22.1288C21.8771 22.3654 21.8809 22.3354 21.8809 24.5172C21.8809 26.3723 21.8884 26.53 21.9522 26.6689C22.0386 26.8604 22.2489 27.0482 22.4329 27.097C22.6469 27.1571 26.3872 27.1534 26.5899 27.0933C26.789 27.0332 27.0443 26.7778 27.0969 26.5901C27.1532 26.391 27.1532 22.6283 27.0969 22.433C27.0481 22.249 26.8603 22.0387 26.6688 21.9523C26.5299 21.8885 26.3721 21.881 24.5095 21.881C22.6319 21.881 22.4892 21.8885 22.3503 21.9523ZM25.3732 24.5097V25.3734H24.5095H23.6458V24.5097V23.646H24.5095H25.3732V24.5097Z" fill="#7F56D9"/>
<path d="M29.3356 21.9523C29.1441 22.0387 28.9563 22.249 28.9075 22.433C28.8474 22.6471 28.8512 26.3873 28.9112 26.5901C28.9713 26.7891 29.2154 27.0332 29.4144 27.0933C29.6172 27.1534 33.3575 27.1571 33.5715 27.097C33.7555 27.0482 33.9658 26.8604 34.0522 26.6689C34.116 26.53 34.1235 26.3723 34.1235 24.5172C34.1235 22.3354 34.1273 22.3654 33.9057 22.1288C33.8494 22.0688 33.7367 21.9899 33.6541 21.9523C33.5152 21.8885 33.3725 21.881 31.4949 21.881C29.6322 21.881 29.4745 21.8885 29.3356 21.9523ZM32.3586 24.5097V25.3734H31.4949H30.6311V24.5097V23.646H31.4949H32.3586V24.5097Z" fill="#7F56D9"/>
<path d="M22.3916 28.9183C22.2076 28.9859 22.0386 29.1436 21.9522 29.3351C21.8884 29.4741 21.8809 29.6167 21.8809 31.4944C21.8809 33.372 21.8884 33.5147 21.9522 33.6536C21.9898 33.7363 22.0686 33.8489 22.1287 33.9052C22.3653 34.1268 22.3352 34.123 24.517 34.123C26.3721 34.123 26.5299 34.1155 26.6688 34.0517C26.8603 33.9653 27.0481 33.7513 27.1006 33.5598C27.1269 33.4621 27.1382 32.7524 27.1307 31.408L27.1194 29.4065L27.0143 29.2487C26.9579 29.1624 26.8415 29.046 26.7552 28.9896L26.5974 28.8845L24.5696 28.877C22.9098 28.8695 22.5117 28.877 22.3916 28.9183ZM25.3732 31.4944V32.3581H24.5095H23.6458V31.4944V30.6307H24.5095H25.3732V31.4944Z" fill="#7F56D9"/>
<path d="M29.3993 28.907C29.2266 28.9596 28.9675 29.2262 28.9111 29.414C28.8398 29.6543 28.851 30.8184 28.9262 30.9987C29.0613 31.3292 29.3467 31.5019 29.7486 31.5019C30.1504 31.5019 30.4358 31.3292 30.5709 30.9987C30.6648 30.7809 30.6536 29.5417 30.5597 29.3351C30.4733 29.1436 30.263 28.9558 30.079 28.907C29.9063 28.8582 29.5683 28.8582 29.3993 28.907Z" fill="#7F56D9"/>
<path d="M32.0049 28.922C31.6781 29.0385 31.4941 29.3314 31.4941 29.7482C31.4941 30.0486 31.573 30.2514 31.742 30.4129C31.9485 30.6081 32.0687 30.6307 32.816 30.6307C33.4056 30.6307 33.5257 30.6194 33.6534 30.5593C33.8374 30.473 33.9876 30.319 34.0627 30.135C34.1453 29.9397 34.1378 29.5266 34.0515 29.3351C33.9651 29.1436 33.7548 28.9558 33.5708 28.907C33.3567 28.8469 32.1851 28.8582 32.0049 28.922Z" fill="#7F56D9"/>
<path d="M18.982 30.642C18.7492 30.7095 18.5652 30.856 18.4675 31.055C18.3887 31.2127 18.3887 31.2616 18.3887 33.3194C18.3887 35.6777 18.3887 35.674 18.659 36.226C18.8844 36.6766 19.3275 37.1235 19.7781 37.3413C20.3527 37.6192 20.3489 37.6192 22.7523 37.6079L24.8777 37.5967L25.0392 37.484C25.2758 37.3188 25.3922 37.0709 25.3884 36.7367C25.3884 36.44 25.3096 36.2448 25.1218 36.0683C24.9115 35.8693 24.9378 35.8693 22.7635 35.8505L20.7357 35.8317L20.5592 35.7266C20.4428 35.659 20.3452 35.5613 20.2776 35.4449L20.1724 35.2684L20.1536 33.2406C20.1386 31.6822 20.1236 31.1865 20.086 31.1001C19.9208 30.7246 19.4251 30.518 18.982 30.642Z" fill="#7F56D9"/>
<path d="M36.5073 30.6269C36.2444 30.6945 36.0154 30.8823 35.9177 31.1001C35.8802 31.1865 35.8652 31.6822 35.8501 33.2406L35.8314 35.2684L35.7262 35.4449C35.6586 35.5613 35.561 35.659 35.4446 35.7266L35.2681 35.8317L33.2402 35.8505C31.066 35.8693 31.0922 35.8693 30.8819 36.0683C30.6942 36.2448 30.6153 36.44 30.6153 36.7367C30.6116 37.0709 30.728 37.3188 30.9646 37.484L31.126 37.5967L33.2515 37.6079C35.6549 37.6192 35.6511 37.6192 36.2257 37.3413C36.6763 37.1235 37.1232 36.6766 37.341 36.226C37.6189 35.6514 37.6189 35.6552 37.6076 33.2518L37.5963 31.1264L37.4837 30.9649C37.4198 30.871 37.2997 30.7659 37.202 30.7171C37.018 30.6232 36.6838 30.5781 36.5073 30.6269Z" fill="#7F56D9"/>
<path d="M30.3226 32.3957C30.1273 32.4558 29.9546 32.5909 29.8494 32.7637C29.7631 32.9177 29.748 32.9815 29.748 33.2406C29.748 33.6049 29.8457 33.8114 30.0973 33.9917L30.2625 34.1043L31.8435 34.1156C32.9212 34.1231 33.4732 34.1156 33.5709 34.0855C33.7549 34.033 33.9689 33.8414 34.0516 33.6537C34.1454 33.4509 34.1454 33.0303 34.0516 32.8275C33.9614 32.6323 33.8037 32.4858 33.6009 32.4145C33.462 32.3656 33.1954 32.3581 31.9298 32.3619C31.1037 32.3619 30.3789 32.3769 30.3226 32.3957Z" fill="#7F56D9"/>
</svg>
